<svg width="48" height="48" viewBox="0 0 48 48" fill="none" xmlns="http://www.w3.org/2000/svg">
  <!-- COMMUNICATION: Chat bubbles icon -->
  <path d="M8 14C8 11.7909 9.79086 10 12 10H28C30.2091 10 32 11.7909 32 14V24C32 26.2091 30.2091 28 28 28H18L12 34V28H12C9.79086 28 8 26.2091 8 24V14Z"
        fill="#F59E0B" opacity="0.2" stroke="#F59E0B" stroke-width="2"/>
  <path d="M16 22H36C38.2091 22 40 23.7909 40 26V34C40 36.2091 38.2091 38 36 38V42L30 38H20C17.7909 38 16 36.2091 16 34V30"
        fill="#F59E0B" opacity="0.2" stroke="#F59E0B" stroke-width="2"/>
</svg>
