<svg width="48" height="48" viewBox="0 0 48 48" fill="none" xmlns="http://www.w3.org/2000/svg">
  <!-- CONSULTATION: Lightbulb/Ideas icon -->
  <path d="M24 8C18.48 8 14 12.48 14 18C14 21.33 15.64 24.28 18.17 26.17C19.17 26.92 20 28.33 20 30V32C20 33.1 20.9 34 22 34H26C27.1 34 28 33.1 28 32V30C28 28.33 28.83 26.92 29.83 26.17C32.36 24.28 34 21.33 34 18C34 12.48 29.52 8 24 8Z"
        fill="#5B21B6" opacity="0.2" stroke="#5B21B6" stroke-width="2" stroke-linejoin="round"/>
  <path d="M20 36H28" stroke="#5B21B6" stroke-width="2" stroke-linecap="round"/>
  <path d="M22 40H26" stroke="#5B21B6" stroke-width="2" stroke-linecap="round"/>
  <circle cx="24" cy="18" r="2" fill="#5B21B6"/>
</svg>
